<mxfile host="Electron" modified="2024-04-11T06:09:53.762Z" agent="Mozilla/5.0 (Macintosh; Intel Mac OS X 10_15_7) AppleWebKit/537.36 (KHTML, like Gecko) draw.io/24.1.0 Chrome/120.0.6099.109 Electron/28.1.0 Safari/537.36" version="24.1.0" etag="8ylCIfSykYcI5x1dZ2_z" type="device">
  <diagram id="x9BuxI6mBQhXl589b8Uh" name="Page-1">
    <mxGraphModel dx="655" dy="516" grid="1" gridSize="10" guides="1" tooltips="1" connect="1" arrows="1" fold="1" page="1" pageScale="1" pageWidth="827" pageHeight="1169" math="0" shadow="0">
      <root>
        <mxCell id="0" />
        <mxCell id="1" parent="0" />
        <mxCell id="cd4fE8B80ex_M9ablPJ0-25" value="Fluffy&lt;br&gt;Aggregator" style="ellipse;shape=cloud;whiteSpace=wrap;html=1;" vertex="1" parent="1">
          <mxGeometry x="354" y="230" width="120" height="80" as="geometry" />
        </mxCell>
        <mxCell id="cd4fE8B80ex_M9ablPJ0-26" value="" style="shape=sumEllipse;perimeter=ellipsePerimeter;whiteSpace=wrap;html=1;backgroundOutline=1;" vertex="1" parent="1">
          <mxGeometry x="380" y="70" width="80" height="80" as="geometry" />
        </mxCell>
        <mxCell id="cd4fE8B80ex_M9ablPJ0-27" value="Auth&lt;br&gt;Aggregator" style="ellipse;shape=cloud;whiteSpace=wrap;html=1;" vertex="1" parent="1">
          <mxGeometry x="550" y="230" width="120" height="80" as="geometry" />
        </mxCell>
        <mxCell id="cd4fE8B80ex_M9ablPJ0-28" value="Build&lt;br&gt;Aggregator" style="ellipse;shape=cloud;whiteSpace=wrap;html=1;" vertex="1" parent="1">
          <mxGeometry x="160" y="230" width="120" height="80" as="geometry" />
        </mxCell>
      </root>
    </mxGraphModel>
  </diagram>
</mxfile>
